<svg xmlns="http://www.w3.org/2000/svg" xml:space="preserve" width="2048" height="2048" style="shape-rendering:geometricPrecision;text-rendering:geometricPrecision;image-rendering:optimizeQuality;fill-rule:evenodd;clip-rule:evenodd"><defs><clipPath id="id0"><path d="M1024-.001c565.541 0 1024 458.46 1024 1024s-458.461 1024-1024 1024c-565.541 0-1024-458.461-1024-1024 0-565.541 458.461-1024 1024-1024z"/></clipPath><style>.fil1{fill:#e6ca75}</style></defs><g id="Layer_x0020_1"><path d="M1024-.001c565.541 0 1024 458.46 1024 1024s-458.461 1024-1024 1024c-565.541 0-1024-458.461-1024-1024 0-565.541 458.461-1024 1024-1024z" style="fill:#ffe082"/><g style="clip-path:url(#id0)"><g id="_517158064"><path id="_2603253681" class="fil1" d="M1367.4 520.067 2503.28 1655.95l-212.02 204.87L1155.38 724.939z"/><path id="_260325920" class="fil1" d="M994.201 823.103 2130.08 1958.98l-101.58-98.16L892.616 724.939z"/><path id="_260326160" class="fil1" d="m1489.08 1329.21 1135.88 1135.88-5.11 7.84-5.24 7.74-5.36 7.65-5.49 7.56-5.62 7.45-5.74 7.36-5.86 7.26-5.98 7.16-6.09 7.05-6.22 6.95-6.32 6.84-6.45 6.74-6.55 6.62-6.66 6.52-6.78 6.4-6.88 6.29-6.98 6.17-7.1 6.06-7.19 5.93-7.29 5.82-7.4 5.7-7.49 5.57-7.59 5.45-7.69 5.32-7.78 5.2-7.87 5.07-7.96 4.93-8.05 4.81-8.14 4.67-8.23 4.53-8.31 4.4-8.39 4.27-1135.88-1135.89 8.39-4.26 8.31-4.4 8.23-4.53 8.14-4.67 8.05-4.81 7.96-4.94 7.87-5.06 7.78-5.2 7.69-5.32 7.59-5.45 7.49-5.58 7.39-5.69 7.3-5.82 7.19-5.94 7.09-6.05 6.99-6.18 6.88-6.28 6.77-6.41 6.67-6.51 6.55-6.63 6.44-6.73 6.33-6.84 6.21-6.95 6.1-7.05 5.98-7.16 5.86-7.26 5.74-7.36 5.61-7.46 5.5-7.55 5.36-7.65 5.24-7.75z"/><path id="_260326424" class="fil1" d="m1269.27 1526.53 1135.88 1135.89v.02L1269.27 1526.56z"/><path id="_260326496" class="fil1" d="m1269.27 1526.56 1135.88 1135.88v32.92L1269.27 1559.47z"/><path id="_260326808" class="fil1" d="m1269.27 1559.47 1135.88 1135.89-.12 2.5-.38 2.44-.6 2.35-.83 2.25-1.03 2.15-1.23 2.02-1.41 1.89-1.58 1.74-1.74 1.58-1.89 1.41-2.02 1.23-2.15 1.04-2.25.82-2.35.61-2.44.37-2.51.12L1244.74 1584l2.51-.13 2.44-.37 2.35-.6 2.25-.83 2.14-1.03 2.03-1.23 1.88-1.41 1.75-1.58 1.58-1.75 1.41-1.88 1.23-2.03 1.03-2.14.83-2.25.6-2.35.37-2.44z"/><path id="_260326832" class="fil1" d="m1244.74 1584 1135.88 1135.88h-220.74L1024 1584z"/><path id="_260326328" class="fil1" d="m778.73 1526.53 1135.88 1135.89-8.39-4.27-8.31-4.4-8.23-4.53-8.14-4.67-8.05-4.81-7.96-4.93-7.87-5.07-7.78-5.2-7.68-5.32-7.6-5.45-7.49-5.57-7.39-5.7-7.3-5.82-7.19-5.93-7.09-6.06L662.256 1448.81l7.091 6.05 7.194 5.94 7.294 5.82 7.395 5.69 7.493 5.58 7.591 5.45 7.684 5.32 7.78 5.2 7.871 5.06 7.962 4.94 8.051 4.81 8.139 4.67 8.226 4.53 8.31 4.4z"/><path id="_260326880" class="fil1" d="M803.258 1584 1939.14 2719.88l-2.51-.12-2.43-.37-2.35-.61-2.26-.82-2.14-1.04-2.02-1.23-1.89-1.41L787.655 1578.4l1.889 1.41 2.022 1.23 2.145 1.03 2.253.83 2.351.6 2.435.37z"/><path id="_260326688" class="fil1" d="m1024 1584 1135.88 1135.88h-220.74L803.258 1584z"/><path id="_260327168" class="fil1" d="M892.616 724.939 2028.5 1860.82l-212.01-204.87L680.605 520.067z"/><path id="_260327408" class="fil1" d="M680.605 520.067 1816.49 1655.95l-6.67-6.44L673.938 513.625z"/><path id="_260327552" class="fil1" d="M1155.38 724.939 2291.26 1860.82l-101.58 98.16L1053.8 823.103z"/><path id="_260327288" class="fil1" d="M1376.06 474.72 2511.94 1610.6l.9 1.16.83 1.19.76 1.23.7 1.25.63 1.28.57 1.3.5 1.32.43 1.34.36 1.36.3 1.37.24 1.38.16 1.38.1 1.4.04 1.39-.04 1.4-.1 1.39-.16 1.38-.24 1.38-.3 1.37-.36 1.36-.43 1.34-.5 1.32-.57 1.3-.63 1.28-.7 1.25-.76 1.23-.83 1.19-.9 1.16-.97 1.12-1.03 1.09L1374.06 513.625l1.03-1.084.97-1.123.89-1.159.84-1.193.76-1.225.7-1.252.63-1.278.57-1.301.49-1.323.44-1.341.36-1.355.3-1.369.23-1.38.17-1.387.1-1.392.03-1.395-.03-1.394-.1-1.392-.17-1.387-.23-1.379-.3-1.369-.36-1.356-.44-1.341-.49-1.322-.57-1.302-.63-1.278-.7-1.252-.76-1.225-.84-1.193z"/><path id="_260327336" class="fil1" d="M1374.06 513.625 2509.94 1649.51l-6.66 6.44L1367.4 520.067z"/><path id="_260327624" class="fil1" d="m1570.26 1016.54 1135.88 1135.88 1.41 1.89 1.23 2.03 1.03 2.14.82 2.25.61 2.35.37 2.44.13 2.51-1135.88-1135.89-.13-2.5-.37-2.44-.61-2.35-.82-2.25-1.03-2.15-1.23-2.02z"/><path id="_260327192" class="fil1" d="m1575.86 1032.14 1135.88 1135.89-.1 10.22-.27 10.18-.47 10.13-.64 10.09-.82 10.04-1 9.98-1.18 9.94-1.36 9.87-1.52 9.83-1.71 9.76-1.87 9.71-2.04 9.64-2.2 9.58-2.37 9.52-2.54 9.46-2.7 9.38-2.86 9.32-3.02 9.25-3.18 9.17-3.33 9.1-3.49 9.03-3.64 8.95-3.79 8.87-3.95 8.79-4.09 8.71-4.23 8.62-4.38 8.54-4.53 8.46-4.66 8.36-4.81 8.28-4.95 8.19-5.08 8.09-1135.88-1135.88 5.08-8.1 4.95-8.18 4.8-8.28 4.67-8.36 4.52-8.46 4.39-8.54 4.23-8.63 4.09-8.71 3.94-8.79 3.8-8.87 3.64-8.95 3.49-9.02 3.33-9.1 3.18-9.18 3.02-9.24 2.86-9.32 2.7-9.39 2.53-9.45 2.38-9.52 2.2-9.58 2.04-9.65 1.87-9.7 1.7-9.77 1.53-9.82 1.36-9.88 1.18-9.93 1-9.98.82-10.04.64-10.09.47-10.13.27-10.18z"/><path id="_517157392" class="fil1" d="m1053.8 823.103 178.282 184.513H1551.33c13.545 0 24.527 10.983 24.527 24.528 0 109.299-31.846 211.24-86.776 297.064-53.818 84.085-129.845 152.61-219.81 197.326V1559.474c0 13.545-10.982 24.528-24.528 24.528H803.26c-13.546 0-24.528-10.983-24.528-24.528V1526.534c-89.964-44.715-165.992-113.241-219.81-197.326-54.93-85.824-86.775-187.765-86.775-297.064 0-13.545 10.982-24.528 24.526-24.528h319.25l178.281-184.513-101.584-98.164-212.012-204.872-6.667-6.442c-11.35-11.349-11.35-29.763 0-41.113 11.35-11.349 29.765-11.349 41.114 0l6.44 6.665L926.357 691.2l97.646 101.06 97.647-101.06 204.86-212.023 6.441-6.665c11.35-11.349 29.764-11.349 41.115 0 11.349 11.35 11.349 29.764 0 41.113l-6.668 6.442-212.012 204.872-101.584 98.164z"/></g></g><path d="M1024-.001c565.541 0 1024 458.46 1024 1024s-458.461 1024-1024 1024c-565.541 0-1024-458.461-1024-1024 0-565.541 458.461-1024 1024-1024z" style="fill:none"/><path d="m673.086 1155.44 659.862-682.932c11.35-11.35 29.764-11.35 41.114 0 11.35 11.35 11.35 29.765 0 41.114l-682.865 659.866c-19.669 17.837-35.92 2.162-18.11-18.048z" style="fill:#e66400"/><path style="fill:#a14a0e" d="m1121.65 691.201 204.86-212.023 40.89 40.889-212.02 204.872z"/><path d="M1374.91 1155.44 715.048 472.508c-11.35-11.35-29.764-11.35-41.114 0-11.35 11.35-11.35 29.765 0 41.114l682.865 659.866c19.669 17.837 35.92 2.162 18.11-18.048z" style="fill:#ff6f00"/><path style="fill:#b3520f" d="M926.355 691.201 721.492 479.178l-40.888 40.889 212.012 204.872z"/><path d="M1575.86 1032.14c0 109.299-31.847 211.24-86.778 297.064-53.817 84.085-129.845 152.61-219.809 197.325v32.941c0 13.545-10.982 24.527-24.528 24.527H803.261c-13.546 0-24.528-10.982-24.528-24.527v-32.941c-89.965-44.714-165.992-113.239-219.809-197.325-54.93-85.824-86.778-187.765-86.778-297.064 0-13.546 10.982-24.527 24.528-24.527h1054.66c13.546 0 24.528 10.98 24.528 24.527z" style="fill:#8bc34a;fill-rule:nonzero"/><path d="M1024 1584v-576.383H496.671c-13.547 0-24.528 10.98-24.528 24.527 0 109.299 31.847 211.24 86.778 297.064 53.817 84.085 129.845 152.61 219.809 197.325v32.941c0 13.545 10.981 24.527 24.528 24.527H1024z" style="fill:#7cb342"/><path d="M1269.27 1526.53c89.965-44.714 165.992-113.239 219.809-197.325 54.93-85.824 86.778-187.765 86.778-297.064 0-13.546-10.982-24.527-24.528-24.527H1024v576.383h220.742c13.546 0 24.528-10.982 24.528-24.527v-32.94z" style="fill:#8bc34a"/><path d="M1024 1584v-57.44H778.73v32.913c0 13.545 10.982 24.527 24.528 24.527H1024z" style="fill:#6ea53b"/><path d="M1024 1526.56V1584h220.742c13.546 0 24.528-10.981 24.528-24.526v-32.914H1024z" style="fill:#7ab242"/></g></svg>